# xmcd
#
# Track frame offsets: 
#        150
#        14255
#        27292
#        40472
#        51672
#        66537
#        77335
#        88697
#        102120
#        114325
#        129157
#        144340
#        159067
#        170275
#        183960
#        194975
#        207212
#
# Disc length: 2920 seconds
#
# Revision: 8
# Processed by: cddbd v1.5.2PL0 Copyright (c) Steve Scherf et al.
# Submitted via: ExactAudioCopy v0.95a4
#
DISCID=e10b6611
DTITLE=Junior Wells - Blues Hit Big Town
DYEAR=1998
DGENRE=Blues
TTITLE0=Hoodoo Man
TTITLE1=Cut That Out
TTITLE2=Junior's Wail
TTITLE3=Tomorrow Night
TTITLE4=Ways Like an Angel
TTITLE5=Eagle Rock
TTITLE6=Please Throw This Poor Dog a Bone
TTITLE7=Blues Hit Big Town
TTITLE8=Lord, Lord
TTITLE9='Bout the Break of Day
TTITLE10=So All Alone
TTITLE11=Can't Find My Baby
TTITLE12=Please Throw This Poor Dog a Bone [Alternate Take]
TTITLE13=Junior's Wail [Alternate Take]
TTITLE14=Eagle Roc [Alternate Take]
TTITLE15=Lord, Lord [Alternate Take]
TTITLE16=Blues Hit Big Time [Alternate Take]
EXTD=With Muddy Waters, Elmore James, Otis Spain\nJunior Wells' first 
EXTD=recordings as a teenager in 1953 and 1954
EXTT0=Originally titled "Hoho Man" on 78's
EXTT1=
EXTT2=
EXTT3=
EXTT4=
EXTT5=
EXTT6=
EXTT7=
EXTT8=
EXTT9=
EXTT10=
EXTT11=
EXTT12=
EXTT13=
EXTT14=
EXTT15=
EXTT16=
PLAYORDER=
